<svg height="512" viewBox="0 0 64 64" width="512" xmlns="http://www.w3.org/2000/svg"><g id="file_manager_android_app_aplication_phone" data-name="file manager android app aplication phone"><path d="m27.865 29.929-4.144-6.215h-20.453a132.162 132.162 0 0 0 .632 23.65 14.539 14.539 0 0 0 12.74 12.741 132.452 132.452 0 0 0 30.739 0 14.539 14.539 0 0 0 12.744-12.741 132.4 132.4 0 0 0 .866-17.435z" fill="#4370ff"/><path d="m22.649 25.713 4.144 6.216h36.207a134.5 134.5 0 0 0 -.883-15.529 16.466 16.466 0 0 0 -14.5-14.5 134.946 134.946 0 0 0 -31.209 0 16.463 16.463 0 0 0 -14.508 14.5c-.05.426-.089.876-.135 1.31h4.024c.031-.279.055-.572.087-.847a12.478 12.478 0 0 1 10.992-10.984 130.963 130.963 0 0 1 30.283 0 12.48 12.48 0 0 1 10.993 10.986c.418 3.6.679 7.311.794 11.063h-4.2v-14.5h-45.455v8.287h-7.9l-.118 1.874a134.682 134.682 0 0 0 .635 24.011 16.463 16.463 0 0 0 14.5 14.5 134.946 134.946 0 0 0 31.209 0 16.466 16.466 0 0 0 14.5-14.5c.447-3.839.712-7.745.824-11.669h-3.981c-.11 3.769-.379 7.52-.808 11.206a12.48 12.48 0 0 1 -10.993 10.984 130.963 130.963 0 0 1 -30.283 0 12.478 12.478 0 0 1 -10.992-10.986 130.869 130.869 0 0 1 -.723-21.422zm-9.365-8.286h37.451v10.5h-21.8l-4.145-6.214h-11.506z"/></g></svg>